{"accessors":{"accessor_0":{"bufferView":"bufferView_0","byteOffset":0,"byteStride":0,"componentType":5126,"count":4144,"min":[-0.09900587797164917,-0.1939655989408493,-0.10952260345220566],"max":[0.15352259576320648,0.1453000009059906,0.10121490061283112],"type":"VEC3"},"accessor_1":{"bufferView":"bufferView_0","byteOffset":49728,"byteStride":0,"componentType":5126,"count":4144,"min":[-0.9997441172599792,-1,-0.9992784261703491],"max":[0.9987944960594177,1,0.9990764856338501],"type":"VEC3"},"accessor_2":{"bufferView":"bufferView_0","byteOffset":99456,"byteStride":0,"componentType":5126,"count":4144,"min":[-0.21514460444450378,0.7488983869552612],"max":[0.2126086950302124,1.2006584405899048],"type":"VEC2"},"accessor_3":{"bufferView":"bufferView_1","byteOffset":0,"byteStride":0,"componentType":5123,"count":462,"min":[0],"max":[299],"type":"SCALAR"},"accessor_4":{"bufferView":"bufferView_1","byteOffset":924,"byteStride":0,"componentType":5123,"count":702,"min":[300],"max":[695],"type":"SCALAR"},"accessor_5":{"bufferView":"bufferView_1","byteOffset":2328,"byteStride":0,"componentType":5123,"count":4560,"min":[696],"max":[3643],"type":"SCALAR"},"accessor_6":{"bufferView":"bufferView_1","byteOffset":11448,"byteStride":0,"componentType":5123,"count":744,"min":[3644],"max":[4143],"type":"SCALAR"}},"asset":{"generator":"obj2gltf","profile":{"api":"WebGL","version":"1.0"},"version":"1.0","premultipliedAlpha":true},"buffers":{"buffer":{"byteLength":145544,"uri":"data:application/octet-stream;base64,","type":"arraybuffer"}},"bufferViews":{"bufferView_0":{"buffer":"buffer","byteLength":132608,"byteOffset":0,"target":34962},"bufferView_1":{"buffer":"buffer","byteLength":12936,"byteOffset":132608,"target":34963}},"extensionsUsed":[],"images":{},"materials":{"mat19":{"technique":"technique0","values":{"ambient":[0,0,0,1],"diffuse":[0.5,0.5,0.5,1],"emission":[0,0,0,1],"specular":[0,0,0,1],"shininess":0,"transparency":1}},"mat20":{"technique":"technique0","values":{"ambient":[0,0,0,1],"diffuse":[0.5,0.5,0.5,1],"emission":[0,0,0,1],"specular":[0,0,0,1],"shininess":0,"transparency":1}},"mat10":{"technique":"technique0","values":{"ambient":[0,0,0,1],"diffuse":[0.5,0.5,0.5,1],"emission":[0,0,0,1],"specular":[0,0,0,1],"shininess":0,"transparency":1}},"mat9":{"technique":"technique0","values":{"ambient":[0,0,0,1],"diffuse":[0.5,0.5,0.5,1],"emission":[0,0,0,1],"specular":[0,0,0,1],"shininess":0,"transparency":1}}},"meshes":{"mesh1430211780":{"name":"mesh1430211780","primitives":[{"attributes":{"POSITION":"accessor_0","NORMAL":"accessor_1","TEXCOORD_0":"accessor_2"},"indices":"accessor_3","material":"mat19","mode":4},{"attributes":{"POSITION":"accessor_0","NORMAL":"accessor_1","TEXCOORD_0":"accessor_2"},"indices":"accessor_4","material":"mat20","mode":4},{"attributes":{"POSITION":"accessor_0","NORMAL":"accessor_1","TEXCOORD_0":"accessor_2"},"indices":"accessor_5","material":"mat10","mode":4},{"attributes":{"POSITION":"accessor_0","NORMAL":"accessor_1","TEXCOORD_0":"accessor_2"},"indices":"accessor_6","material":"mat9","mode":4}]}},"nodes":{"group1430211780":{"name":"group1430211780","meshes":["mesh1430211780"],"children":[],"matrix":[1,0,0,0,0,1,0,0,0,0,1,0,0,0,0,1]}},"samplers":{},"scene":"scene","scenes":{"scene":{"nodes":["group1430211780"]}},"textures":{},"animations":{},"cameras":{},"programs":{"program0":{"attributes":["a_position","a_normal","a_texcoord_0"],"fragmentShader":"fragmentShader0","vertexShader":"vertexShader0"}},"shaders":{"vertexShader0":{"type":35633,"uri":"data:text/plain;base64,"},"fragmentShader0":{"type":35632,"uri":"data:text/plain;base64,"}},"skins":{},"techniques":{"technique0":{"attributes":{"a_position":"position","a_normal":"normal","a_texcoord_0":"texcoord_0"},"parameters":{"modelViewMatrix":{"semantic":"MODELVIEW","type":35676},"projectionMatrix":{"semantic":"PROJECTION","type":35676},"normalMatrix":{"semantic":"MODELVIEWINVERSETRANSPOSE","type":35675},"ambient":{"type":35666},"diffuse":{"type":35666},"emission":{"type":35666},"specular":{"type":35666},"shininess":{"type":5126},"transparency":{"type":5126},"position":{"semantic":"POSITION","type":35665},"normal":{"semantic":"NORMAL","type":35665},"texcoord_0":{"semantic":"TEXCOORD_0","type":5126}},"program":"program0","states":{"enable":[2884,2929]},"uniforms":{"u_modelViewMatrix":"modelViewMatrix","u_projectionMatrix":"projectionMatrix","u_normalMatrix":"normalMatrix","u_ambient":"ambient","u_diffuse":"diffuse","u_emission":"emission","u_specular":"specular","u_shininess":"shininess","u_transparency":"transparency"}}}}
